<svg width="1076" height="348" viewBox="0 0 1076 348" fill="none" xmlns="http://www.w3.org/2000/svg">
<g clip-path="url(#clip0_34_208)">
<path d="M1000.02 235.658C991.197 235.658 984.152 234.063 978.886 230.874C973.027 227.537 970.098 222.605 970.098 216.079V158.788C965.722 152.633 963.534 145.068 963.534 136.095C963.534 127.047 965.722 119.223 970.098 112.622H987.118C995.869 112.622 1002.14 115.441 1005.92 121.077C1004.06 123.153 1002.43 125.786 1001.02 128.975C999.614 132.164 998.91 134.463 998.91 135.872C998.91 137.207 999.244 138.208 999.911 138.876C1000.65 139.543 1001.69 139.877 1003.03 139.877C1005.62 129.568 1010.55 122.004 1017.82 117.183C1023.83 113.104 1031.24 111.065 1040.07 111.065C1051.05 111.065 1059.65 113.401 1065.88 118.073C1068.1 124.006 1069.22 131.274 1069.22 139.877C1069.22 148.406 1067.51 156.156 1064.1 163.127C1061.58 164.462 1058.09 165.611 1053.64 166.575C1049.19 167.465 1044.71 167.91 1040.18 167.91C1035.66 167.91 1031.58 167.614 1027.94 167.02C1024.38 166.353 1021.79 165.76 1020.16 165.241C1019.56 165.834 1019.27 166.687 1019.27 167.799C1019.27 168.912 1019.97 169.764 1021.38 170.358C1022.86 170.877 1025.31 171.47 1028.72 172.138V227.982C1020.64 233.099 1011.07 235.658 1000.02 235.658Z" fill="#FFF5DA"/>
<path d="M951.191 179.147C951.191 184.486 951.784 188.788 952.971 192.051C954.157 195.314 956.234 197.873 959.2 199.727C959.275 200.097 959.312 200.802 959.312 201.84V203.843C959.312 214.374 956.123 222.569 949.745 228.427C944.108 233.619 937.137 236.215 928.831 236.215C923.195 236.215 918.04 234.88 913.368 232.21C908.696 229.54 905.359 225.683 903.356 220.64C900.835 220.64 899.574 221.864 899.574 224.311C899.574 226.388 900.872 228.724 903.467 231.32C898.647 234.583 891.379 236.215 881.664 236.215C867.944 236.215 856.968 232.506 848.736 225.09C840.578 217.6 836.499 207.18 836.499 193.831C836.499 180.407 840.837 170.025 849.514 162.683C857.45 156.082 867.721 152.782 880.329 152.782C884.63 152.782 888.783 153.079 892.788 153.672C895.458 154.191 896.904 154.488 897.126 154.562C897.349 153.82 897.46 153.19 897.46 152.671C897.46 150.742 895.829 149.445 892.566 148.777C889.302 148.11 885.038 147.776 879.773 147.776C868.574 147.776 859.007 150.038 851.072 154.562C847.438 148.406 845.621 140.619 845.621 131.201C845.621 125.861 846.288 121.893 847.623 119.298C852.963 116.85 859.749 114.7 867.981 112.845C876.213 110.917 884.89 109.953 894.012 109.953C912.849 109.953 927.088 114.069 936.729 122.301C946.37 130.533 951.191 142.214 951.191 157.343V179.147ZM893.455 184.598C890.341 184.598 888.783 186.007 888.783 188.825C888.783 191.495 890.6 192.83 894.234 192.83C896.756 192.83 898.61 192.236 899.796 191.05C900.983 189.789 901.576 187.638 901.576 184.598C901.576 184.598 898.869 184.598 893.455 184.598Z" fill="#FFF5DA"/>
<path d="M827.047 183.374C827.047 199.022 822.078 211.741 812.141 221.53C801.61 232.061 787.074 237.327 768.533 237.327C757.928 237.327 747.879 234.583 738.386 229.095C731.118 224.942 725.593 220.158 721.811 214.744C721.069 210.221 720.698 206.105 720.698 202.396C720.698 190.308 724.37 181.038 731.712 174.586C737.645 169.394 744.95 166.799 753.627 166.799C760.227 166.799 766.234 168.541 771.648 172.027C777.136 175.735 781.178 180.852 783.774 187.379C786.147 187.379 787.333 186.155 787.333 183.708C787.333 182.447 786.777 180.778 785.665 178.702C784.626 176.625 783.106 174.548 781.104 172.472C775.838 167.058 769.497 163.721 762.081 162.46V98.3838C765.789 95.6397 770.461 93.3407 776.098 91.4867C781.734 89.6326 788.149 88.7056 795.343 88.7056C802.537 88.7056 809.026 89.9663 814.811 92.4878C822.968 96.196 827.047 101.758 827.047 109.174V183.374Z" fill="#FFF5DA"/>
<path d="M659.074 237.661C638.531 237.661 622.326 231.95 610.46 220.529C598.298 209.034 592.217 193.312 592.217 173.362C592.217 153.338 598.483 137.467 611.017 125.75C622.586 114.848 637.233 109.397 654.958 109.397C672.683 109.397 686.885 114.292 697.564 124.081C708.318 133.796 713.694 145.774 713.694 160.013C713.694 172.695 709.282 182.261 700.456 188.714C692.299 194.795 681.174 197.836 667.083 197.836C656.552 197.836 647.653 195.648 640.385 191.272C639.792 191.717 639.495 192.533 639.495 193.72C639.495 195.944 642.424 197.984 648.283 199.838C654.142 201.84 660.78 202.842 668.196 202.842C675.686 202.842 682.472 201.915 688.553 200.06C694.709 198.132 699.641 195.87 703.349 193.275C705.129 194.832 706.538 197.724 707.576 201.952C708.689 206.105 709.245 209.924 709.245 213.41C709.245 216.821 708.911 219.862 708.244 222.532C702.459 227.426 696.526 230.912 690.445 232.989C681.842 236.103 671.385 237.661 659.074 237.661ZM657.628 162.349C661.336 162.349 663.19 160.94 663.19 158.122C663.19 155.452 661.225 154.117 657.294 154.117C653.363 154.117 651.101 156.23 650.508 160.458C652.585 161.719 654.958 162.349 657.628 162.349Z" fill="#FFF5DA"/>
<path d="M578.093 134.093V178.145C578.093 189.196 580.763 196.389 586.103 199.727C586.177 200.097 586.214 200.802 586.214 201.84V203.843C586.214 214.744 583.248 222.939 577.315 228.427C571.827 233.619 564.485 236.214 555.288 236.214C546.166 236.214 538.639 233.619 532.706 228.427C525.216 221.827 521.47 212.186 521.47 199.504V127.196C522.805 126.232 524.251 125.453 525.809 124.86C527.366 124.266 528.998 123.525 530.704 122.635C527.515 121.003 524.622 118.185 522.027 114.18C519.431 110.101 518.133 105.355 518.133 99.9411C518.133 90.5967 521.211 82.958 527.366 77.025C533.522 71.092 541.049 68.1255 549.949 68.1255C558.922 68.1255 566.413 71.1661 572.42 77.2475C578.501 83.2546 581.542 90.8192 581.542 99.9411C581.542 107.283 579.243 113.735 574.645 119.298C570.047 124.786 564.447 128.234 557.847 129.643C557.847 132.461 558.922 133.87 561.073 133.87C564.855 133.87 568.712 132.387 572.642 129.421C575.609 131.72 577.426 133.277 578.093 134.093Z" fill="#FFF5DA"/>
<path d="M443.827 192.385L438.487 194.721C438.487 199.69 439.451 204.992 441.379 210.629C443.011 215.969 445.273 220.715 448.165 224.868C440.823 232.433 430.626 236.215 417.573 236.215C410.083 236.215 403.594 234.25 398.106 230.319C391.728 225.869 388.539 219.973 388.539 212.631V82.81C392.098 80.7335 396.363 79.0277 401.332 77.6928C406.375 76.3579 411.455 75.6904 416.572 75.6904C425.101 75.6904 432.146 77.3591 437.708 80.6964C444.012 84.627 447.164 90.2633 447.164 97.6054V109.397C447.164 119.261 445.421 128.902 441.935 138.321C441.268 139.285 440.081 140.694 438.376 142.548C436.67 144.328 435.298 145.959 434.26 147.443C433.296 148.926 432.813 150.224 432.813 151.336C432.813 152.374 433.703 153.338 435.483 154.228C441.268 148.815 445.792 142.919 449.055 136.541C452.392 130.163 455.433 121.708 458.177 111.177C459.141 111.029 460.254 110.843 461.514 110.621C462.775 110.398 464.852 110.065 467.744 109.62C470.71 109.101 472.787 108.841 473.974 108.841C485.395 108.841 494.294 111.474 500.672 116.739C507.05 121.931 510.239 129.087 510.239 138.209C510.239 147.331 507.347 155.155 501.562 161.682C496.222 167.541 489.288 171.953 480.759 174.92C487.582 178.924 496.185 181.78 506.568 183.485C510.573 190.753 512.575 198.503 512.575 206.735C512.575 214.893 509.979 221.716 504.788 227.204C499.003 233.211 490.994 236.215 480.759 236.215C470.599 236.215 462.219 232.321 455.618 224.534C449.092 216.673 445.162 205.957 443.827 192.385Z" fill="#FFF5DA"/>
<path d="M82.6412 189.937C83.3829 189.937 84.0503 189.752 84.6436 189.381V179.258C89.6867 175.846 96.7321 173.065 105.78 170.914C114.902 168.764 123.764 167.688 132.367 167.688C136.298 171.693 139.561 177.7 142.157 185.71C144.826 193.645 146.235 200.839 146.384 207.291C144.901 210.257 142.379 213.446 138.819 216.858C135.334 220.269 131.106 223.421 126.137 226.314C113.826 233.581 99.6986 237.215 83.7537 237.215C60.9117 237.215 42.9273 230.578 29.8006 217.303C16.2288 203.879 9.44299 185.302 9.44299 161.57C9.44299 137.764 16.8592 119.075 31.6917 105.503C38.218 99.4218 45.8196 94.8608 54.4966 91.8202C63.1736 88.7054 72.2956 87.1479 81.8625 87.1479C100.551 87.1479 115.866 91.6719 127.806 100.72C139.746 109.767 145.716 120.929 145.716 134.204C145.716 144.216 142.639 151.632 136.483 156.453C130.328 161.199 121.984 163.572 111.453 163.572C105.669 163.572 99.8469 162.163 93.9881 159.345C88.1292 156.453 84.6436 153.746 83.5312 151.224C83.5312 145.143 83.6424 140.359 83.8649 136.874C83.7166 136.8 83.457 136.763 83.0862 136.763H82.3075C81.1951 136.763 80.3051 137.096 79.6377 137.764C79.0444 138.357 78.4881 139.655 77.969 141.657C77.524 143.66 77.3015 149.111 77.3015 158.01C77.3015 179.295 79.0814 189.937 82.6412 189.937Z" fill="#FFF5DA"/>
<path d="M167.137 176.705L184.882 247.08C184.882 247.08 194.284 225.53 222.232 208.95C250.18 192.37 268.532 203.568 268.532 203.568C268.532 203.568 274.813 172.501 262.365 141.036C249.917 109.571 226.639 68.2025 182.81 74.311C155.261 78.1507 137.15 99.0639 157.135 137.742L207.189 171.725L167.137 176.705Z" fill="#FFF5DA"/>
<path d="M278.679 176.705L296.425 247.08C296.425 247.08 305.827 225.53 333.775 208.95C361.723 192.37 380.074 203.568 380.074 203.568C380.074 203.568 386.356 172.501 373.908 141.036C361.46 109.571 338.181 68.2025 294.352 74.311C266.803 78.1507 248.692 99.0639 268.678 137.742L318.732 171.725L278.679 176.705Z" fill="#FFF5DA"/>
<path fill-rule="evenodd" clip-rule="evenodd" d="M149.488 68.8485C142.03 75.9192 138.713 85.7751 141.499 94.8876L130.152 98.3579C125.793 84.1046 131.285 69.7545 141.324 60.2374C151.415 50.6705 166.568 45.4631 182.526 49.572L179.567 61.0632C167.924 58.0653 156.893 61.8276 149.488 68.8485Z" fill="#FFF5DA"/>
<path fill-rule="evenodd" clip-rule="evenodd" d="M261.03 68.8485C253.572 75.9192 250.255 85.7751 253.042 94.8876L241.695 98.3579C237.336 84.1046 242.828 69.7545 252.866 60.2374C262.957 50.6705 278.11 45.4631 294.068 49.572L291.11 61.0632C279.466 58.0653 268.436 61.8276 261.03 68.8485Z" fill="#FFF5DA"/>
</g>
<defs>
<clipPath id="clip0_34_208">
<rect width="1076" height="348" fill="white"/>
</clipPath>
</defs>
</svg>
