<svg width="704" height="179" viewBox="0 0 704 179" fill="none" xmlns="http://www.w3.org/2000/svg">
<g clip-path="url(#clip0_88_2)">
<path d="M647.866 128.984C642.214 128.984 637.703 127.963 634.331 125.921C630.579 123.784 628.703 120.625 628.703 116.446V79.759C625.901 75.8172 624.5 70.9731 624.5 65.2266C624.5 59.4326 625.901 54.4223 628.703 50.1956H639.602C645.206 50.1956 649.219 52.0002 651.641 55.6096C650.454 56.9393 649.409 58.6253 648.507 60.6674C647.605 62.7095 647.153 64.1818 647.153 65.0841C647.153 65.939 647.367 66.5801 647.795 67.0075C648.269 67.4349 648.934 67.6487 649.789 67.6487C651.451 61.0473 654.61 56.2032 659.264 53.1163C663.111 50.5043 667.86 49.1982 673.511 49.1982C680.54 49.1982 686.049 50.6942 690.038 53.6862C691.463 57.4855 692.175 62.1397 692.175 67.6487C692.175 73.1102 691.083 78.073 688.898 82.5372C687.284 83.3921 685.052 84.1282 682.202 84.7456C679.353 85.3155 676.479 85.6004 673.582 85.6004C670.685 85.6004 668.073 85.4104 665.746 85.0305C663.467 84.6031 661.805 84.2232 660.76 83.8907C660.38 84.2707 660.19 84.8168 660.19 85.5292C660.19 86.2415 660.641 86.7877 661.543 87.1676C662.493 87.5001 664.06 87.88 666.245 88.3074V124.068C661.068 127.345 654.942 128.984 647.866 128.984Z" fill="#181D30"/>
<path d="M616.595 92.7958C616.595 96.2152 616.975 98.9697 617.735 101.059C618.495 103.149 619.825 104.787 621.724 105.975C621.772 106.212 621.796 106.663 621.796 107.328V108.61C621.796 115.354 619.754 120.602 615.669 124.354C612.06 127.678 607.596 129.34 602.277 129.34C598.667 129.34 595.367 128.486 592.375 126.776C589.383 125.066 587.246 122.597 585.963 119.367C584.349 119.367 583.541 120.151 583.541 121.718C583.541 123.048 584.372 124.544 586.035 126.206C582.948 128.296 578.294 129.34 572.072 129.34C563.286 129.34 556.258 126.966 550.986 122.217C545.762 117.42 543.15 110.748 543.15 102.199C543.15 93.6032 545.928 86.9544 551.485 82.2527C556.566 78.026 563.144 75.9126 571.217 75.9126C573.972 75.9126 576.631 76.1026 579.196 76.4825C580.906 76.815 581.832 77.0049 581.974 77.0524C582.117 76.5775 582.188 76.1738 582.188 75.8414C582.188 74.6066 581.143 73.7755 579.053 73.3481C576.964 72.9207 574.233 72.707 570.861 72.707C563.69 72.707 557.564 74.1554 552.482 77.0524C550.155 73.1106 548.991 68.124 548.991 62.0926C548.991 58.6732 549.419 56.1324 550.274 54.4702C553.693 52.903 558.038 51.5258 563.31 50.3385C568.582 49.1037 574.138 48.4863 579.98 48.4863C592.042 48.4863 601.161 51.1221 607.335 56.3937C613.508 61.6652 616.595 69.1451 616.595 78.8333V92.7958ZM579.623 96.2864C577.629 96.2864 576.631 97.1888 576.631 98.9935C576.631 100.703 577.795 101.558 580.122 101.558C581.737 101.558 582.924 101.178 583.684 100.418C584.444 99.6108 584.824 98.2336 584.824 96.2864C584.824 96.2864 583.09 96.2864 579.623 96.2864Z" fill="#181D30"/>
<path d="M537.097 95.5027C537.097 105.523 533.915 113.668 527.552 119.937C520.808 126.681 511.499 130.053 499.627 130.053C492.835 130.053 486.4 128.296 480.321 124.781C475.667 122.122 472.129 119.058 469.707 115.592C469.232 112.695 468.995 110.059 468.995 107.684C468.995 99.9431 471.345 94.0067 476.047 89.8749C479.846 86.5505 484.524 84.8883 490.081 84.8883C494.308 84.8883 498.154 86.0044 501.621 88.2365C505.136 90.6111 507.724 93.888 509.386 98.0672C510.906 98.0672 511.666 97.2836 511.666 95.7164C511.666 94.909 511.309 93.8405 510.597 92.5107C509.932 91.181 508.959 89.8512 507.676 88.5214C504.305 85.0546 500.244 82.9175 495.495 82.1101V41.0775C497.869 39.3203 500.861 37.8481 504.471 36.6608C508.08 35.4735 512.188 34.8799 516.795 34.8799C521.401 34.8799 525.557 35.6872 529.261 37.3019C534.485 39.6765 537.097 43.2384 537.097 47.9875V95.5027Z" fill="#181D30"/>
<path d="M429.532 130.266C416.377 130.266 406 126.609 398.401 119.296C390.613 111.935 386.718 101.866 386.718 89.0912C386.718 76.2685 390.731 66.1054 398.757 58.6017C406.166 51.6205 415.546 48.1299 426.896 48.1299C438.246 48.1299 447.341 51.2643 454.18 57.5332C461.066 63.7546 464.509 71.4244 464.509 80.5428C464.509 88.6638 461.683 94.7902 456.032 98.922C450.808 102.816 443.684 104.763 434.661 104.763C427.917 104.763 422.218 103.362 417.564 100.56C417.184 100.845 416.994 101.368 416.994 102.128C416.994 103.552 418.87 104.858 422.622 106.046C426.374 107.328 430.624 107.969 435.373 107.969C440.17 107.969 444.515 107.375 448.41 106.188C452.351 104.953 455.51 103.505 457.884 101.843C459.024 102.84 459.926 104.692 460.591 107.399C461.304 110.059 461.66 112.505 461.66 114.737C461.66 116.921 461.446 118.868 461.019 120.578C457.314 123.712 453.515 125.945 449.621 127.274C444.112 129.269 437.415 130.266 429.532 130.266ZM428.606 82.0388C430.98 82.0388 432.168 81.1364 432.168 79.3317C432.168 77.6221 430.909 76.7672 428.392 76.7672C425.875 76.7672 424.426 78.1207 424.047 80.8277C425.376 81.6351 426.896 82.0388 428.606 82.0388Z" fill="#181D30"/>
<path d="M377.675 63.9448V92.1547C377.675 99.2309 379.384 103.838 382.804 105.975C382.851 106.212 382.875 106.663 382.875 107.328V108.61C382.875 115.592 380.975 120.84 377.176 124.354C373.662 127.678 368.96 129.34 363.071 129.34C357.23 129.34 352.409 127.678 348.61 124.354C343.813 120.127 341.415 113.953 341.415 105.832V59.5281C342.27 58.9107 343.196 58.412 344.193 58.0321C345.191 57.6522 346.235 57.1773 347.328 56.6074C345.285 55.5626 343.433 53.7579 341.771 51.1933C340.109 48.5813 339.278 45.5419 339.278 42.075C339.278 36.0911 341.249 31.1995 345.191 27.4001C349.132 23.6008 353.953 21.7012 359.652 21.7012C365.398 21.7012 370.195 23.6483 374.042 27.5426C377.936 31.3894 379.883 36.2335 379.883 42.075C379.883 46.7766 378.411 50.9084 375.466 54.4703C372.522 57.9846 368.936 60.193 364.709 61.0953C364.709 62.9 365.398 63.8023 366.775 63.8023C369.197 63.8023 371.667 62.8525 374.184 60.9528C376.084 62.4251 377.247 63.4224 377.675 63.9448Z" fill="#181D30"/>
<path d="M291.694 101.273L288.275 102.769C288.275 105.951 288.892 109.347 290.127 112.956C291.172 116.375 292.62 119.415 294.472 122.074C289.771 126.919 283.24 129.341 274.882 129.341C270.085 129.341 265.93 128.082 262.415 125.565C258.331 122.716 256.289 118.94 256.289 114.238V31.1046C258.569 29.7748 261.299 28.6825 264.481 27.8277C267.711 26.9728 270.964 26.5454 274.241 26.5454C279.702 26.5454 284.214 27.614 287.776 29.7511C291.813 32.2681 293.831 35.8775 293.831 40.5791V48.1303C293.831 54.4466 292.715 60.6205 290.483 66.6519C290.055 67.2693 289.296 68.1716 288.203 69.3589C287.111 70.4987 286.232 71.5435 285.568 72.4934C284.95 73.4432 284.641 74.2743 284.641 74.9867C284.641 75.6515 285.211 76.2689 286.351 76.8388C290.055 73.372 292.952 69.5964 295.042 65.5121C297.179 61.4279 299.126 56.0138 300.884 49.2701C301.501 49.1751 302.213 49.0563 303.021 48.9139C303.828 48.7714 305.158 48.5577 307.01 48.2727C308.91 47.9403 310.239 47.7741 310.999 47.7741C318.313 47.7741 324.012 49.46 328.096 52.8319C332.18 56.1563 334.222 60.7392 334.222 66.5807C334.222 72.4221 332.37 77.4325 328.666 81.6117C325.247 85.3635 320.806 88.1893 315.345 90.0889C319.714 92.6535 325.223 94.4819 331.872 95.5742C334.436 100.228 335.718 105.191 335.718 110.463C335.718 115.687 334.056 120.056 330.732 123.57C327.028 127.417 321.898 129.341 315.345 129.341C308.838 129.341 303.472 126.847 299.245 121.861C295.066 116.827 292.549 109.964 291.694 101.273Z" fill="#181D30"/>
<path d="M60.4014 99.7054C60.8763 99.7054 61.3037 99.5867 61.6836 99.3492V92.8667C64.9131 90.6821 69.4247 88.9011 75.2187 87.5239C81.0601 86.1466 86.7354 85.458 92.2444 85.458C94.7614 88.0225 96.851 91.8693 98.5132 96.9984C100.223 102.08 101.125 106.687 101.22 110.818C100.27 112.718 98.6557 114.76 96.3761 116.945C94.144 119.129 91.437 121.148 88.2551 123C80.3715 127.654 71.3244 129.981 61.1138 129.981C46.4864 129.981 34.9697 125.731 26.5637 117.23C17.8728 108.634 13.5273 96.7372 13.5273 81.54C13.5273 66.2952 18.2765 54.3274 27.7748 45.6364C31.954 41.7422 36.8219 38.8214 42.3784 36.8743C47.9349 34.8796 53.7763 33.8823 59.9027 33.8823C71.8706 33.8823 81.6775 36.7793 89.3237 42.5733C96.9698 48.3672 100.793 55.5147 100.793 64.0156C100.793 70.427 98.8219 75.1761 94.8802 78.263C90.9384 81.3025 85.5956 82.8222 78.8518 82.8222C75.1475 82.8222 71.4194 81.9199 67.6676 80.1152C63.9157 78.263 61.6836 76.5296 60.9713 74.9149C60.9713 71.0206 61.0425 67.9574 61.185 65.7253C61.09 65.6778 60.9238 65.6541 60.6863 65.6541H60.1877C59.4753 65.6541 58.9054 65.8678 58.478 66.2952C58.098 66.6751 57.7419 67.5062 57.4094 68.7885C57.1245 70.0708 56.982 73.5614 56.982 79.2604C56.982 92.8904 58.1218 99.7054 60.4014 99.7054Z" fill="#181D30"/>
<path d="M114.51 91.2325L125.873 136.299C125.873 136.299 131.894 122.499 149.791 111.881C167.689 101.264 179.44 108.435 179.44 108.435C179.44 108.435 183.463 88.5399 175.491 68.3909C167.52 48.2418 152.613 21.7504 124.546 25.6621C106.905 28.1209 95.3069 41.5131 108.105 66.2816L140.158 88.0434L114.51 91.2325Z" fill="#181D30"/>
<path d="M185.938 91.2325L197.302 136.299C197.302 136.299 203.323 122.499 221.22 111.881C239.117 101.264 250.869 108.435 250.869 108.435C250.869 108.435 254.891 88.5399 246.92 68.3909C238.949 48.2418 224.042 21.7504 195.975 25.6621C178.333 28.1209 166.736 41.5131 179.534 66.2816L211.587 88.0434L185.938 91.2325Z" fill="#181D30"/>
<path fill-rule="evenodd" clip-rule="evenodd" d="M103.208 22.1639C98.4317 26.6918 96.3074 33.0032 98.092 38.8386L90.8256 41.0609C88.0342 31.9335 91.5513 22.7441 97.9797 16.6496C104.442 10.5232 114.145 7.1886 124.364 9.81983L122.47 17.1784C115.014 15.2587 107.95 17.668 103.208 22.1639Z" fill="#181D30"/>
<path fill-rule="evenodd" clip-rule="evenodd" d="M174.636 22.1639C169.86 26.6918 167.736 33.0032 169.521 38.8386L162.254 41.0609C159.463 31.9335 162.98 22.7441 169.408 16.6496C175.87 10.5232 185.574 7.1886 195.793 9.81983L193.898 17.1784C186.442 15.2587 179.379 17.668 174.636 22.1639Z" fill="#181D30"/>
</g>
<defs>
<clipPath id="clip0_88_2">
<rect width="704" height="179" fill="white"/>
</clipPath>
</defs>
</svg>
