<svg width="1440" height="102" viewBox="0 0 1440 102" fill="none" xmlns="http://www.w3.org/2000/svg">
<path d="M97.5 97.5C97.5 84.6961 94.9781 72.0176 90.0782 60.1884C85.1784 48.3591 77.9966 37.6108 68.9429 28.5571C59.8892 19.5034 49.1409 12.3216 37.3116 7.42174C25.4824 2.52191 12.8039 -5.59675e-07 0 0L4.26186e-06 97.5H97.5Z" fill="#CFAB71"/>
<path d="M187 97.5C187 84.6961 184.478 72.0176 179.578 60.1884C174.678 48.3591 167.497 37.6108 158.443 28.5571C149.389 19.5034 138.641 12.3216 126.812 7.42174C114.982 2.52191 102.304 -5.59675e-07 89.5 0L89.5 97.5H187Z" fill="#CFAB71"/>
<path d="M276.5 97.5C276.5 84.6961 273.978 72.0176 269.078 60.1884C264.178 48.3591 256.997 37.6108 247.943 28.5571C238.889 19.5034 228.141 12.3216 216.312 7.42174C204.482 2.52191 191.804 -5.59675e-07 179 0L179 97.5H276.5Z" fill="#CFAB71"/>
<path d="M366 97.5C366 84.6961 363.478 72.0176 358.578 60.1884C353.678 48.3591 346.497 37.6108 337.443 28.5571C328.389 19.5034 317.641 12.3216 305.812 7.42174C293.982 2.52191 281.304 -5.59675e-07 268.5 0L268.5 97.5H366Z" fill="#CFAB71"/>
<path d="M455.5 97.5C455.5 84.6961 452.978 72.0176 448.078 60.1884C443.178 48.3591 435.997 37.6108 426.943 28.5571C417.889 19.5034 407.141 12.3216 395.312 7.42174C383.482 2.52191 370.804 -5.59675e-07 358 0L358 97.5H455.5Z" fill="#CFAB71"/>
<path d="M545 97.5C545 84.6961 542.478 72.0176 537.578 60.1884C532.678 48.3591 525.497 37.6108 516.443 28.5571C507.389 19.5034 496.641 12.3216 484.812 7.42174C472.982 2.52191 460.304 -5.59675e-07 447.5 0L447.5 97.5H545Z" fill="#CFAB71"/>
<path d="M634.5 97.5C634.5 84.6961 631.978 72.0176 627.078 60.1884C622.178 48.3591 614.997 37.6108 605.943 28.5571C596.889 19.5034 586.141 12.3216 574.312 7.42174C562.482 2.52191 549.804 -5.59675e-07 537 0L537 97.5H634.5Z" fill="#CFAB71"/>
<path d="M724 97.5C724 84.6961 721.478 72.0176 716.578 60.1884C711.678 48.3591 704.497 37.6108 695.443 28.5571C686.389 19.5034 675.641 12.3216 663.812 7.42174C651.982 2.52191 639.304 -5.59675e-07 626.5 0L626.5 97.5H724Z" fill="#CFAB71"/>
<path d="M813.5 97.5C813.5 84.6961 810.978 72.0176 806.078 60.1884C801.178 48.3591 793.997 37.6108 784.943 28.5571C775.889 19.5034 765.141 12.3216 753.312 7.42174C741.482 2.52191 728.804 -5.59675e-07 716 0L716 97.5H813.5Z" fill="#CFAB71"/>
<path d="M903 97.5C903 84.6961 900.478 72.0176 895.578 60.1884C890.678 48.3591 883.497 37.6108 874.443 28.5571C865.389 19.5034 854.641 12.3216 842.812 7.42174C830.982 2.52191 818.304 -5.59675e-07 805.5 0L805.5 97.5H903Z" fill="#CFAB71"/>
<path d="M992.5 97.5C992.5 84.6961 989.978 72.0176 985.078 60.1884C980.178 48.3591 972.997 37.6108 963.943 28.5571C954.889 19.5034 944.141 12.3216 932.312 7.42174C920.482 2.52191 907.804 -5.59675e-07 895 0L895 97.5H992.5Z" fill="#CFAB71"/>
<path d="M1082 97.5C1082 84.6961 1079.48 72.0176 1074.58 60.1884C1069.68 48.3591 1062.5 37.6108 1053.44 28.5571C1044.39 19.5034 1033.64 12.3216 1021.81 7.42174C1009.98 2.52191 997.304 -5.59675e-07 984.5 0L984.5 97.5H1082Z" fill="#CFAB71"/>
<path d="M1171.5 97.5C1171.5 84.6961 1168.98 72.0176 1164.08 60.1884C1159.18 48.3591 1152 37.6108 1142.94 28.5571C1133.89 19.5034 1123.14 12.3216 1111.31 7.42174C1099.48 2.52191 1086.8 -5.59675e-07 1074 0L1074 97.5H1171.5Z" fill="#CFAB71"/>
<path d="M1261 97.5C1261 84.6961 1258.48 72.0176 1253.58 60.1884C1248.68 48.3591 1241.5 37.6108 1232.44 28.5571C1223.39 19.5034 1212.64 12.3216 1200.81 7.42174C1188.98 2.52191 1176.3 -5.59675e-07 1163.5 0L1163.5 97.5H1261Z" fill="#CFAB71"/>
<path d="M1350.5 97.5C1350.5 84.6961 1347.98 72.0176 1343.08 60.1884C1338.18 48.3591 1331 37.6108 1321.94 28.5571C1312.89 19.5034 1302.14 12.3216 1290.31 7.42174C1278.48 2.52191 1265.8 -5.59675e-07 1253 0L1253 97.5H1350.5Z" fill="#CFAB71"/>
<path d="M1440 97.5C1440 84.6961 1437.48 72.0176 1432.58 60.1884C1427.68 48.3591 1420.5 37.6108 1411.44 28.5571C1402.39 19.5034 1391.64 12.3216 1379.81 7.42174C1367.98 2.52191 1355.3 -5.59675e-07 1342.5 0L1342.5 97.5H1440Z" fill="#CFAB71"/>
<path d="M0 73H1416C1429.25 73 1440 83.7452 1440 97V102H0V73Z" fill="#CFAB71"/>
</svg>
